<svg xmlns="http://www.w3.org/2000/svg" width="29" height="29" viewBox="0 0 29 29" fill="none">
  <g opacity="0.5">
    <path d="M21.7929 20.7645C25.9078 16.722 25.9078 10.2365 21.7929 6.19398C17.6781 2.15148 11.0783 2.15148 6.96459 6.19398C2.85093 10.2365 2.84976 16.722 6.96459 20.7645" stroke="#000" stroke-width="2"/>
    <path fill-rule="evenodd" clip-rule="evenodd" d="M5.16211 25.3294H23.8288H5.16211Z" stroke="#000" stroke-width="2" stroke-linecap="round"/>
    <path d="M14.3783 7.83008V9.28841" stroke="#000" stroke-width="2"/>
    <path d="M14.3783 19.4954V18.0371" stroke="#000" stroke-width="2"/>
    <path d="M17.2801 11.3288C17.2042 10.1901 16.2651 9.28711 15.1077 9.28711H13.5094C12.3777 9.28711 11.4619 10.2041 11.4619 11.3346C11.4619 12.2738 12.1012 13.0928 13.0112 13.3214L15.7447 14.0074C16.6559 14.2361 17.2941 15.0551 17.2941 15.9943C17.2941 17.1259 16.3771 18.0418 15.2466 18.0418H13.6482C12.4886 18.0418 11.5494 17.1364 11.4747 15.9954" stroke="#000" stroke-width="2"/>
  </g>
</svg>