<svg xmlns="http://www.w3.org/2000/svg" width="29" height="28" viewBox="0 0 29 28" fill="none">
  <g opacity="0.5">
    <path d="M22.4871 8.11211L19.7282 4.4335C18.9851 3.44279 17.5976 3.20512 16.5672 3.89205L10.1553 8.16667" stroke="#000" stroke-width="2"/>
    <path d="M25.4038 13.416V11.0827C25.4038 9.47185 24.098 8.16602 22.4871 8.16602H7.32048C5.70964 8.16602 4.40381 9.47185 4.40381 11.0827V21.5827C4.40381 23.1935 5.70964 24.4993 7.32048 24.4993H22.4871C24.098 24.4993 25.4038 23.1935 25.4038 21.5827V19.2493" stroke="#000" stroke-width="2"/>
    <path fill-rule="evenodd" clip-rule="evenodd" d="M22.487 13.418H25.4036C26.048 13.418 26.5703 13.9403 26.5703 14.5846V18.0846C26.5703 18.729 26.048 19.2513 25.4036 19.2513H22.487C20.8761 19.2513 19.5703 17.9455 19.5703 16.3346V16.3346C19.5703 14.7238 20.8761 13.418 22.487 13.418V13.418Z" stroke="#000" stroke-width="2" stroke-linecap="round"/>
  </g>
</svg>